<svg width="35" height="42" viewBox="0 0 35 42" fill="none" xmlns="http://www.w3.org/2000/svg">
<path fill-rule="evenodd" clip-rule="evenodd" d="M23.8544 0.165039C30.6384 0.165039 34.5304 3.52304 34.5304 9.37304V38.445C34.5304 39.665 33.9024 40.763 32.8464 41.377C31.7944 41.993 30.5264 42.005 29.4624 41.405L17.5424 34.671L5.51239 41.419C4.99239 41.711 4.42239 41.859 3.85039 41.859C3.26039 41.859 2.67039 41.701 2.13439 41.385C1.08039 40.771 0.452393 39.673 0.452393 38.455V9.00704C0.452393 3.38704 4.34639 0.165039 11.1364 0.165039H23.8544ZM23.8544 3.16504H11.1364C6.03839 3.16504 3.45239 5.12904 3.45239 9.00704V38.455C3.45239 38.643 3.56039 38.745 3.65039 38.797C3.74039 38.853 3.88239 38.893 4.04639 38.801L16.8104 31.641C17.2664 31.387 17.8244 31.385 18.2824 31.643L30.9364 38.791C31.1024 38.887 31.2444 38.843 31.3344 38.789C31.4244 38.735 31.5304 38.633 31.5304 38.445L31.5297 9.14513C31.5145 7.42379 31.1815 3.16504 23.8544 3.16504ZM24.732 13.622C25.56 13.622 26.232 14.294 26.232 15.122C26.232 15.95 25.56 16.622 24.732 16.622H10.096C9.26799 16.622 8.59599 15.95 8.59599 15.122C8.59599 14.294 9.26799 13.622 10.096 13.622H24.732Z" fill="black"/>
</svg>
