<svg width="36" height="32" viewBox="0 0 36 32" fill="none" xmlns="http://www.w3.org/2000/svg">
<path fill-rule="evenodd" clip-rule="evenodd" d="M29.2282 19.581C32.6602 19.581 35.4522 22.359 35.4522 25.773C35.4522 29.187 32.6602 31.965 29.2282 31.965C25.7942 31.965 23.0002 29.187 23.0002 25.773C23.0002 22.359 25.7942 19.581 29.2282 19.581ZM29.2282 22.581C27.4482 22.581 26.0002 24.013 26.0002 25.773C26.0002 27.535 27.4482 28.965 29.2282 28.965C31.0062 28.965 32.4522 27.535 32.4522 25.773C32.4522 24.013 31.0062 22.581 29.2282 22.581ZM14.613 24.3506C15.441 24.3506 16.113 25.0226 16.113 25.8506C16.113 26.6786 15.441 27.3506 14.613 27.3506H2.01099C1.18299 27.3506 0.510993 26.6786 0.510993 25.8506C0.510993 25.0226 1.18299 24.3506 2.01099 24.3506H14.613ZM6.67839 0.165039C10.1124 0.165039 12.9044 2.94504 12.9044 6.35904C12.9044 9.77304 10.1124 12.549 6.67839 12.549C3.24639 12.549 0.452393 9.77304 0.452393 6.35904C0.452393 2.94504 3.24639 0.165039 6.67839 0.165039ZM6.67839 3.16504C4.90039 3.16504 3.45239 4.59704 3.45239 6.35904C3.45239 8.11904 4.90039 9.54904 6.67839 9.54904C8.45839 9.54904 9.90439 8.11904 9.90439 6.35904C9.90439 4.59704 8.45839 3.16504 6.67839 3.16504ZM32.8346 4.96584C33.6626 4.96584 34.3346 5.63784 34.3346 6.46584C34.3346 7.29384 33.6626 7.96584 32.8346 7.96584H20.2346C19.4066 7.96584 18.7346 7.29384 18.7346 6.46584C18.7346 5.63784 19.4066 4.96584 20.2346 4.96584H32.8346Z" fill="black"/>
</svg>
