<svg width="38" height="44" viewBox="0 0 38 44" fill="none" xmlns="http://www.w3.org/2000/svg">
<path fill-rule="evenodd" clip-rule="evenodd" d="M15.1008 38.377C16.1368 39.531 17.4668 40.165 18.8468 40.165H18.8488C20.2348 40.165 21.5708 39.531 22.6088 38.375C23.1648 37.761 24.1128 37.711 24.7268 38.265C25.3428 38.819 25.3928 39.769 24.8388 40.383C23.2228 42.177 21.0968 43.165 18.8488 43.165H18.8448C16.6028 43.163 14.4808 42.175 12.8708 40.381C12.3168 39.767 12.3668 38.817 12.9828 38.265C13.5988 37.709 14.5468 37.759 15.1008 38.377ZM18.9464 0.165039C27.8364 0.165039 33.8084 7.08904 33.8084 13.555C33.8084 16.881 34.6544 18.291 35.5524 19.787C36.4404 21.263 37.4464 22.939 37.4464 26.107C36.7484 34.201 28.2984 34.861 18.9464 34.861C9.59445 34.861 1.14245 34.201 0.452419 26.235C0.446446 22.939 1.45245 21.263 2.34045 19.787L2.65393 19.2593C3.4258 17.9328 4.08445 16.4897 4.08445 13.555C4.08445 7.08904 10.0564 0.165039 18.9464 0.165039ZM18.9464 3.16504C11.9564 3.16504 7.08445 8.64104 7.08445 13.555C7.08445 17.713 5.93045 19.635 4.91045 21.331C4.09245 22.693 3.44645 23.769 3.44645 26.107C3.78045 29.879 6.27045 31.861 18.9464 31.861C31.5524 31.861 34.1204 29.791 34.4524 25.977C34.4464 23.769 33.8004 22.693 32.9824 21.331C31.9624 19.635 30.8084 17.713 30.8084 13.555C30.8084 8.64104 25.9364 3.16504 18.9464 3.16504Z" fill="black"/>
</svg>
