<svg width="41" height="42" viewBox="0 0 41 42" fill="none" xmlns="http://www.w3.org/2000/svg">
<path fill-rule="evenodd" clip-rule="evenodd" d="M19.9304 0.155273C30.6704 0.155273 39.4064 8.89127 39.4064 19.6313C39.4064 24.6984 37.4618 29.3198 34.2797 32.7883L40.5412 39.0367C41.1272 39.6227 41.1292 40.5707 40.5432 41.1567C40.2512 41.4527 39.8652 41.5987 39.4812 41.5987C39.0992 41.5987 38.7152 41.4527 38.4212 41.1607L32.0841 34.8413C28.7505 37.511 24.5237 39.1093 19.9304 39.1093C9.19039 39.1093 0.452393 30.3713 0.452393 19.6313C0.452393 8.89127 9.19039 0.155273 19.9304 0.155273ZM19.9304 3.15527C10.8444 3.15527 3.45239 10.5453 3.45239 19.6313C3.45239 28.7173 10.8444 36.1093 19.9304 36.1093C29.0144 36.1093 36.4064 28.7173 36.4064 19.6313C36.4064 10.5453 29.0144 3.15527 19.9304 3.15527Z" fill="black"/>
</svg>
